<svg xmlns="http://www.w3.org/2000/svg" width="600" height="600"><path fill="none" stroke="#000" stroke-width="5.429" d="M5.267 5.276h589.689v589.68H5.267z"/><ellipse cx="556.78" cy="47.017" rx="22.881" ry="23.473" fill="none" stroke="#000" stroke-width="5.571"/><path stroke="#999" stroke-width="1.3" stroke-linejoin="round" d="M7.627 533.898h587.329v61.058H7.627z"/><g aria-label="&lt;MODULE NAME&gt;" style="line-height:1.25;-inkscape-font-specification:sans-serif" font-weight="400" font-size="40" font-family="sans-serif" letter-spacing="0" word-spacing="0" fill="#fff"><path d="M146.263 575.615l-22.54-10.02v-2.422l22.54-10.02v3.516l-17.774 7.715 17.774 7.715zM181.302 577.119h-3.867V552.06l-8.086 17.05h-2.305l-8.027-17.05v25.059h-3.614v-29.082h5.274l7.754 16.191 7.5-16.191h5.37zM210.833 551.376q1.777 1.954 2.715 4.786.957 2.832.957 6.425 0 3.594-.977 6.446-.957 2.832-2.695 4.726-1.797 1.973-4.258 2.969-2.441.996-5.586.996-3.066 0-5.586-1.016-2.5-1.015-4.257-2.949-1.758-1.933-2.715-4.746-.938-2.812-.938-6.426 0-3.554.938-6.367.937-2.832 2.734-4.844 1.719-1.914 4.258-2.93 2.558-1.015 5.566-1.015 3.125 0 5.606 1.035 2.5 1.016 4.238 2.91zm-.352 11.211q0-5.664-2.539-8.73-2.539-3.086-6.933-3.086-4.434 0-6.973 3.086-2.52 3.066-2.52 8.73 0 5.723 2.579 8.77 2.578 3.027 6.914 3.027t6.894-3.027q2.578-3.047 2.578-8.77zM245.208 562.607q0 3.965-1.738 7.187-1.719 3.223-4.59 5-1.992 1.23-4.453 1.778-2.442.547-6.446.547h-7.343v-29.082h7.265q4.258 0 6.758.625 2.52.605 4.258 1.68 2.969 1.855 4.629 4.94 1.66 3.087 1.66 7.325zm-4.043-.059q0-3.418-1.191-5.761-1.192-2.344-3.555-3.692-1.719-.976-3.652-1.347-1.934-.391-4.63-.391h-3.632v22.441h3.633q2.793 0 4.863-.41 2.09-.41 3.828-1.523 2.168-1.387 3.242-3.653 1.094-2.265 1.094-5.664zM273.392 565.439q0 3.164-.704 5.527-.683 2.344-2.265 3.907-1.504 1.484-3.516 2.168-2.011.683-4.687.683-2.735 0-4.766-.723-2.031-.722-3.418-2.128-1.582-1.602-2.285-3.868-.684-2.265-.684-5.566v-17.402h3.868v17.597q0 2.364.312 3.73.332 1.368 1.094 2.481.86 1.27 2.324 1.914 1.484.645 3.555.645 2.09 0 3.554-.625 1.465-.645 2.344-1.934.762-1.113 1.074-2.539.332-1.445.332-3.574v-17.695h3.868zM299.192 577.119h-18.398v-29.082h3.867v25.644h14.531zM322.22 577.119h-19.16v-29.082h19.16v3.437h-15.293v7.969h15.293v3.437h-15.293v10.801h15.293zM364.622 577.119h-4.785l-13.79-26.016v26.016h-3.612v-29.082h5.996l12.578 23.75v-23.75h3.613zM395.286 577.119h-4.12l-2.853-8.106h-12.578l-2.851 8.106h-3.926l10.586-29.082h5.156zm-8.164-11.426l-5.098-14.277-5.117 14.277zM425.599 577.119h-3.868V552.06l-8.085 17.05h-2.305l-8.028-17.05v25.059H399.7v-29.082h5.274l7.754 16.191 7.5-16.191h5.37zM452.61 577.119h-19.16v-29.082h19.16v3.437h-15.293v7.969h15.293v3.437h-15.293v10.801h15.293zM482.63 565.595l-22.54 10.02v-3.516l17.774-7.715-17.773-7.715v-3.515l22.539 10.02z"/></g><path d="M44.492 580.932L1.499 554.906l44.036-24.22z" transform="matrix(1.08945 0 0 .7495 12.515 148.13)" fill="#fff" stroke="#999" stroke-width="1.3" stroke-linejoin="round"/><path d="M44.492 580.932L1.499 554.906l44.036-24.22z" transform="matrix(-1.08935 .01445 -.00994 -.74943 595.528 980.055)" fill="#fff" stroke="#999" stroke-width="1.3" stroke-linejoin="round"/><g aria-label="&lt;ZOOMED IN PICTURE OF SOME MODULE&gt;" style="line-height:1.25;-inkscape-font-specification:sans-serif" font-weight="400" font-size="61.196" font-family="sans-serif" letter-spacing="0" word-spacing="0" stroke-width="1.53"><path d="M163.887 204.405l-27.104-19.501v-4.714l27.104-19.502v6.843l-21.373 15.016 21.373 15.016zM200.433 207.333h-27.292v-6.995l21.444-42.92H173.94v-6.69h25.977v6.805l-21.656 43.109h22.172zM233.456 157.229q2.138 3.801 3.265 9.313 1.15 5.513 1.15 12.507 0 6.995-1.173 12.545-1.151 5.513-3.242 9.2-2.16 3.84-5.12 5.778-2.936 1.939-6.717 1.939-3.688 0-6.718-1.977-3.006-1.977-5.12-5.74-2.114-3.763-3.265-9.238-1.127-5.474-1.127-12.507 0-6.918 1.127-12.392 1.128-5.513 3.289-9.428 2.067-3.726 5.12-5.702 3.077-1.977 6.694-1.977 3.758 0 6.74 2.015 3.007 1.976 5.097 5.664zm-.422 21.82q0-11.024-3.054-16.992-3.053-6.007-8.338-6.007-5.331 0-8.385 6.007-3.03 5.968-3.03 16.992 0 11.139 3.1 17.07 3.101 5.891 8.315 5.891 5.214 0 8.291-5.892 3.1-5.93 3.1-17.069zM271.318 157.229q2.137 3.801 3.264 9.313 1.151 5.513 1.151 12.507 0 6.995-1.174 12.545-1.15 5.513-3.241 9.2-2.161 3.84-5.12 5.778-2.936 1.939-6.718 1.939-3.687 0-6.717-1.977-3.007-1.977-5.12-5.74-2.114-3.763-3.265-9.238-1.128-5.474-1.128-12.507 0-6.918 1.128-12.392 1.127-5.513 3.288-9.428 2.067-3.726 5.12-5.702 3.077-1.977 6.694-1.977 3.758 0 6.741 2.015 3.006 1.976 5.097 5.664zm-.423 21.82q0-11.024-3.053-16.992-3.054-6.007-8.338-6.007-5.332 0-8.385 6.007-3.03 5.968-3.03 16.992 0 11.139 3.1 17.07 3.1 5.891 8.315 5.891 5.214 0 8.29-5.892 3.101-5.93 3.101-17.069zM314.252 207.333h-4.65v-48.774l-9.724 33.187h-2.771l-9.654-33.187v48.774h-4.345v-56.605h6.342l9.324 31.515 9.02-31.515h6.458zM346.735 207.333h-23.04v-56.605h23.04v6.69h-18.39v15.511h18.39v6.69h-18.39v21.023h18.39zM383.68 179.087q0 7.717-2.09 13.99-2.067 6.272-5.52 9.732-2.395 2.395-5.354 3.46-2.936 1.064-7.751 1.064h-8.831v-56.605h8.737q5.12 0 8.126 1.217 3.03 1.178 5.12 3.269 3.57 3.611 5.567 9.618 1.997 6.006 1.997 14.255zm-4.861-.114q0-6.652-1.433-11.214t-4.275-7.185q-2.067-1.9-4.392-2.623-2.325-.76-5.566-.76h-4.369v43.68h4.369q3.358 0 5.848-.8 2.513-.798 4.604-2.964 2.607-2.7 3.898-7.11 1.316-4.409 1.316-11.024zM420.485 207.333h-13.81v-5.779h4.58v-45.047h-4.58v-5.779h13.81v5.779h-4.58v45.047h4.58zM455.129 207.333h-5.755l-16.582-50.636v50.636h-4.345v-56.605h7.21l15.127 46.226v-46.226h4.345zM107.659 265.153q0 3.764-.822 6.995-.799 3.193-2.255 5.55-1.809 2.928-4.275 4.41-2.466 1.445-6.224 1.445h-4.65v21.098h-4.65v-56.604h9.488q3.147 0 5.332.874 2.184.836 3.875 2.661 1.996 2.167 3.077 5.398 1.104 3.231 1.104 8.173zm-4.839.19q0-2.927-.634-5.094-.634-2.166-1.926-3.535-1.127-1.178-2.583-1.673-1.433-.532-3.64-.532h-4.604v22.62h3.922q2.818 0 4.58-.8 1.762-.836 2.865-2.622 1.104-1.825 1.55-3.84.47-2.015.47-4.524zM126.143 304.651h-13.81v-5.778h4.58v-45.048h-4.58v-5.778h13.81v5.778h-4.58v45.048h4.58zM161.116 300.545q-1.292.913-2.35 1.711-1.032.798-2.724 1.673-1.432.722-3.123 1.216-1.668.532-3.688.532-3.805 0-6.929-1.71-3.1-1.749-5.402-5.436-2.254-3.612-3.523-9.162-1.268-5.588-1.268-12.963 0-6.995 1.221-12.507 1.222-5.512 3.523-9.314 2.232-3.687 5.379-5.626 3.17-1.939 7.023-1.939 2.818 0 5.613 1.103 2.819 1.102 6.248 3.877v8.934h-.353q-2.889-3.916-5.73-5.703-2.842-1.786-6.084-1.786-2.654 0-4.791 1.406-2.114 1.369-3.782 4.296-1.62 2.851-2.536 7.223-.893 4.334-.893 10.036 0 5.968.987 10.264 1.01 4.296 2.583 6.995 1.644 2.813 3.829 4.181 2.208 1.33 4.65 1.33 3.359 0 6.295-1.862 2.936-1.863 5.496-5.588h.329zM192.683 254.737h-12.496v49.914h-4.65v-49.914h-12.495v-6.69h29.64zM223.756 281.918q0 6.158-.845 10.758-.822 4.562-2.725 7.603-1.808 2.89-4.228 4.22-2.419 1.33-5.637 1.33-3.288 0-5.73-1.406-2.443-1.407-4.11-4.144-1.903-3.117-2.749-7.527-.822-4.41-.822-10.834v-33.871h4.65v34.251q0 4.6.376 7.261.4 2.661 1.316 4.828 1.033 2.47 2.795 3.725 1.785 1.255 4.274 1.255 2.514 0 4.275-1.217 1.762-1.254 2.819-3.763.916-2.167 1.291-4.942.4-2.813.4-6.957v-34.441h4.65zM261.594 304.651h-6.036l-11.697-22.505h-6.553v22.505h-4.65v-56.604h9.794q3.17 0 5.285.684 2.113.646 3.804 2.357 1.903 1.939 2.96 4.904 1.08 2.927 1.08 7.45 0 6.121-1.902 10.265-1.903 4.105-5.238 6.196zm-10.875-40.676q0-2.433-.54-4.296-.516-1.9-1.738-3.193-1.01-1.102-2.396-1.52-1.385-.457-3.264-.457h-5.473v21.365h4.698q2.207 0 3.852-.609 1.644-.646 2.795-2.357 1.056-1.596 1.55-3.649.516-2.09.516-5.284zM289.145 304.651h-23.041v-56.604h23.04v6.69h-18.39v15.51h18.39v6.691h-18.39v21.022h18.39zM339.525 254.547q2.137 3.802 3.264 9.314 1.151 5.512 1.151 12.507t-1.174 12.545q-1.151 5.512-3.241 9.2-2.161 3.839-5.12 5.778-2.936 1.938-6.718 1.938-3.687 0-6.717-1.976-3.007-1.977-5.12-5.74-2.114-3.764-3.265-9.238-1.128-5.474-1.128-12.507 0-6.919 1.128-12.393 1.127-5.512 3.288-9.428 2.067-3.725 5.12-5.702 3.077-1.977 6.694-1.977 3.758 0 6.74 2.015 3.007 1.977 5.098 5.664zm-.423 21.82q0-11.024-3.053-16.992-3.054-6.006-8.338-6.006-5.332 0-8.385 6.006-3.03 5.968-3.03 16.993 0 11.138 3.1 17.069 3.1 5.892 8.315 5.892 5.214 0 8.29-5.892 3.1-5.93 3.1-17.07zM373.652 254.737h-17.686v15.967h15.196v6.69h-15.196v27.257h-4.65v-56.604h22.336zM421.26 288.495q0 3.307-.963 6.538-.94 3.231-2.654 5.474-1.879 2.433-4.392 3.802-2.49 1.368-6.013 1.368-3.781 0-6.811-1.14-3.006-1.14-6.13-3.383v-9.428h.329q2.654 3.573 6.13 5.512 3.476 1.939 6.53 1.939 4.32 0 6.717-2.623 2.419-2.623 2.419-6.995 0-3.763-1.151-5.55-1.127-1.787-3.453-2.775-1.761-.76-3.828-1.255-2.043-.494-4.345-1.254-4.65-1.597-6.905-5.436-2.232-3.878-2.232-10.074 0-7.11 3.711-11.633 3.711-4.562 9.419-4.562 3.687 0 6.764 1.14 3.077 1.141 5.449 2.814v8.895h-.329q-1.996-2.737-5.261-4.523-3.241-1.825-6.647-1.825-3.734 0-6.013 2.509-2.254 2.509-2.254 6.462 0 3.536 1.127 5.55 1.127 2.015 3.97 3.08 1.503.532 4.274 1.292t4.697 1.559q3.9 1.673 5.872 5.056 1.973 3.383 1.973 9.466zM454.8 254.547q2.137 3.802 3.265 9.314 1.15 5.512 1.15 12.507t-1.174 12.545q-1.15 5.512-3.241 9.2-2.16 3.839-5.12 5.778-2.936 1.938-6.718 1.938-3.687 0-6.717-1.976-3.006-1.977-5.12-5.74-2.114-3.764-3.265-9.238-1.127-5.474-1.127-12.507 0-6.919 1.127-12.393 1.127-5.512 3.288-9.428 2.067-3.725 5.12-5.702 3.077-1.977 6.694-1.977 3.758 0 6.741 2.015 3.007 1.977 5.097 5.664zm-.423 21.82q0-11.024-3.053-16.992-3.054-6.006-8.338-6.006-5.332 0-8.385 6.006-3.03 5.968-3.03 16.993 0 11.138 3.1 17.069 3.1 5.892 8.315 5.892 5.214 0 8.29-5.892 3.101-5.93 3.101-17.07zM497.735 304.651h-4.65v-48.773l-9.725 33.187h-2.771l-9.653-33.187v48.773h-4.345v-56.604h6.341l9.325 31.514 9.019-31.514h6.459zM530.217 304.651h-23.04v-56.604h23.04v6.69h-18.39v15.51h18.39v6.691h-18.39v21.022h18.39zM234.302 401.97h-4.65v-48.774l-9.724 33.187h-2.772l-9.653-33.187v48.773h-4.345v-56.604h6.341l9.325 31.514 9.019-31.514h6.459zM269.815 351.866q2.137 3.801 3.264 9.313 1.151 5.512 1.151 12.507t-1.174 12.545q-1.151 5.512-3.241 9.2-2.161 3.84-5.12 5.778-2.937 1.939-6.718 1.939-3.688 0-6.717-1.977-3.007-1.977-5.12-5.74-2.114-3.764-3.265-9.238-1.128-5.474-1.128-12.507 0-6.919 1.128-12.393 1.127-5.512 3.288-9.427 2.067-3.726 5.12-5.703 3.077-1.976 6.694-1.976 3.758 0 6.74 2.014 3.007 1.977 5.098 5.665zm-.423 21.82q0-11.024-3.054-16.992-3.053-6.007-8.338-6.007-5.331 0-8.384 6.007-3.03 5.968-3.03 16.992 0 11.139 3.1 17.069 3.1 5.892 8.314 5.892 5.215 0 8.291-5.892 3.1-5.93 3.1-17.069zM311.152 373.724q0 7.717-2.09 13.99-2.067 6.272-5.52 9.732-2.395 2.395-5.355 3.459-2.936 1.064-7.75 1.064h-8.832v-56.604h8.737q5.12 0 8.127 1.217 3.03 1.178 5.12 3.269 3.57 3.611 5.567 9.618 1.996 6.006 1.996 14.255zm-4.862-.114q0-6.652-1.433-11.214-1.432-4.562-4.274-7.185-2.067-1.9-4.392-2.623-2.326-.76-5.567-.76h-4.368v43.679h4.368q3.359 0 5.849-.799 2.513-.798 4.603-2.965 2.607-2.699 3.899-7.109 1.315-4.41 1.315-11.024zM345.044 379.236q0 6.159-.845 10.759-.822 4.561-2.725 7.603-1.808 2.889-4.228 4.22-2.419 1.33-5.637 1.33-3.288 0-5.73-1.407-2.443-1.406-4.11-4.143-1.903-3.118-2.749-7.527-.822-4.41-.822-10.835v-33.871h4.65v34.252q0 4.6.377 7.26.399 2.661 1.315 4.828 1.033 2.471 2.795 3.726 1.785 1.254 4.274 1.254 2.514 0 4.275-1.216 1.762-1.255 2.819-3.764.916-2.167 1.291-4.942.4-2.813.4-6.956v-34.442h4.65zM376.07 401.97h-22.124v-56.605h4.65v49.914h17.475zM403.762 401.97h-23.04v-56.605h23.04v6.69h-18.39v15.51h18.39v6.691h-18.39v21.023h18.39zM439.862 379.54l-27.104 19.502V392.2l21.373-15.016-21.373-15.016v-6.843l27.104 19.502z"/></g></svg>